<svg id='Backend_Development_24' width='24' height='24' viewBox='0 0 24 24' xmlns='http://www.w3.org/2000/svg' xmlns:xlink='http://www.w3.org/1999/xlink'><rect width='24' height='24' stroke='none' fill='#000000' opacity='0'/>


<g transform="matrix(0.31 0 0 0.31 12 12)" >
<g style="" >
<g transform="matrix(1 0 0 1 0 0)" >
<linearGradient id="SVGID_IBaIX1OauTI4XTUr6X2Fza_4" gradientUnits="userSpaceOnUse" gradientTransform="matrix(1 0 0 1 0 -711)" x1="32" y1="723.908" x2="32" y2="762.288">
<stop offset="0%" style="stop-color:rgb(109,199,255);stop-opacity: 1"/>
<stop offset="100%" style="stop-color:rgb(230,171,255);stop-opacity: 1"/>
</linearGradient>
<path style="stroke: none; stroke-width: 1; stroke-dasharray: none; stroke-linecap: butt; stroke-dashoffset: 0; stroke-linejoin: miter; stroke-miterlimit: 4; fill: url(#SVGID_IBaIX1OauTI4XTUr6X2Fza_4); fill-rule: nonzero; opacity: 1;" transform=" translate(-32, -32)" d="M 32 51 C 21.506999999999998 51 13 42.493 13 32 C 13 21.506999999999998 21.506999999999998 13 32 13 C 42.493 13 51 21.506999999999998 51 32 C 50.988 42.489 42.489 50.988 32 51 z M 32 15 C 22.611 15 15 22.611 15 32 C 15 41.388999999999996 22.611 49 32 49 C 41.388999999999996 49 49 41.389 49 32 C 48.989 22.616 41.384 15.011 32 15 z" stroke-linecap="round" />
</g>
<g transform="matrix(1 0 0 1 0 0)" >
<linearGradient id="SVGID_IBaIX1OauTI4XTUr6X2Fzb_5" gradientUnits="userSpaceOnUse" gradientTransform="matrix(1 0 0 1 0 0)" x1="32.001" y1="-3.217" x2="32.001" y2="62.262">
<stop offset="0%" style="stop-color:rgb(26,109,255);stop-opacity: 1"/>
<stop offset="100%" style="stop-color:rgb(200,34,255);stop-opacity: 1"/>
</linearGradient>
<path style="stroke: none; stroke-width: 1; stroke-dasharray: none; stroke-linecap: butt; stroke-dashoffset: 0; stroke-linejoin: miter; stroke-miterlimit: 4; fill: url(#SVGID_IBaIX1OauTI4XTUr6X2Fzb_5); fill-rule: nonzero; opacity: 1;" transform=" translate(-32, -32)" d="M 61.948 30.246 C 61.84 28.439 60.489 26.95 58.7 26.666999999999998 C 57.683 26.494999999999997 56.471000000000004 26.298 55.471000000000004 26.136 L 55.24 26.1 C 54.616 26.002000000000002 54.102000000000004 25.557000000000002 53.915 24.954 C 53.539 23.758 53.061 22.597 52.488 21.482 C 52.194 20.923 52.245 20.246 52.619 19.737 C 53.219 18.880999999999997 54.006 17.798 54.653999999999996 16.901 C 55.724999999999994 15.427 55.623999999999995 13.405 54.412 12.045 C 53.632999999999996 11.181 52.807 10.359 51.939 9.585 C 50.585 8.382000000000001 48.576 8.284 47.111 9.349 C 46.205 9.994 45.111 10.780000000000001 44.26 11.396 C 43.75 11.768 43.071999999999996 11.817 42.513999999999996 11.522 C 41.401999999999994 10.944 40.242999999999995 10.461 39.05 10.078 C 38.446999999999996 9.889999999999999 38.004 9.375 37.907999999999994 8.751 C 37.73199999999999 7.718 37.517999999999994 6.398999999999999 37.34199999999999 5.3069999999999995 C 37.056999999999995 3.5089999999999995 35.55899999999999 2.1519999999999997 33.74199999999999 2.0449999999999995 C 32.57999999999999 1.9849999999999994 31.414999999999992 1.9879999999999995 30.25299999999999 2.0539999999999994 C 28.444 2.159 26.952 3.51 26.668 5.3 C 26.496 6.317 26.299 7.529 26.137 8.529 L 26.1 8.76 C 26.002000000000002 9.383 25.558 9.897 24.955000000000002 10.084 C 23.759 10.461 22.598000000000003 10.939 21.483 11.512 C 20.924 11.807 20.246000000000002 11.756 19.737000000000002 11.381 C 18.882 10.781 17.799000000000003 9.993 16.901000000000003 9.346 C 15.427000000000003 8.274000000000001 13.406000000000002 8.375 12.046000000000003 9.588000000000001 C 11.181000000000003 10.367 10.360000000000003 11.192 9.586000000000002 12.061 C 8.385000000000002 13.415 8.286000000000001 15.423 9.349000000000002 16.887999999999998 C 9.995000000000003 17.794999999999998 10.780000000000001 18.887999999999998 11.397000000000002 19.738999999999997 C 11.769000000000002 20.249999999999996 11.817000000000002 20.926999999999996 11.522000000000002 21.485999999999997 C 10.944000000000003 22.598 10.461000000000002 23.756999999999998 10.078000000000003 24.949999999999996 C 9.890000000000002 25.551999999999996 9.376000000000003 25.994999999999997 8.752000000000002 26.090999999999994 C 7.718000000000003 26.267999999999994 6.400000000000002 26.480999999999995 5.306000000000003 26.657999999999994 C 3.506000000000003 26.942999999999994 2.1490000000000027 28.443999999999996 2.0440000000000027 30.262999999999995 C 1.9830000000000028 31.424999999999994 1.9860000000000027 32.589999999999996 2.0530000000000026 33.751999999999995 C 2.1620000000000026 35.559 3.5120000000000027 37.047999999999995 5.3000000000000025 37.331999999999994 C 6.317000000000002 37.50399999999999 7.529000000000003 37.699999999999996 8.529000000000003 37.86299999999999 L 8.764 37.9 C 9.386999999999999 37.998999999999995 9.901 38.443 10.088 39.046 C 10.465 40.242 10.941999999999998 41.403 11.514999999999999 42.518 C 11.809 43.077 11.758 43.754 11.383999999999999 44.263 C 10.783999999999999 45.119 9.996999999999998 46.202 9.348999999999998 47.1 C 8.277999999999999 48.574 8.378999999999998 50.595 9.590999999999998 51.955 C 10.369999999999997 52.818999999999996 11.195999999999998 53.64 12.063999999999997 54.415 C 13.418999999999997 55.616 15.425999999999997 55.714 16.891999999999996 54.652 C 17.797999999999995 54.006 18.891999999999996 53.221000000000004 19.742999999999995 52.604 C 20.252999999999997 52.232 20.930999999999994 52.184 21.488999999999994 52.478 C 22.600999999999992 53.057 23.759999999999994 53.54 24.953999999999994 53.923 C 25.555999999999994 54.111000000000004 25.998999999999995 54.626000000000005 26.09499999999999 55.249 C 26.27099999999999 56.283 26.484999999999992 57.601 26.66099999999999 58.695 C 26.94599999999999 60.495 28.446999999999992 61.853 30.26699999999999 61.957 C 30.828 61.986 31.385 62 31.94 62 C 32.553000000000004 62 33.158 61.982 33.755 61.947 C 35.562000000000005 61.839000000000006 37.051 60.489000000000004 37.335 58.701 C 37.507 57.685 37.704 56.473 37.866 55.473 L 37.903999999999996 55.238 C 38.00299999999999 54.615 38.446 54.101 39.049 53.914 C 40.245 53.537 41.406 53.059000000000005 42.521 52.486000000000004 C 43.08 52.193000000000005 43.758 52.24400000000001 44.267 52.617000000000004 C 45.122 53.222 46.205000000000005 54.005 47.103 54.653000000000006 C 48.577 55.724000000000004 50.598 55.623000000000005 51.958 54.41100000000001 C 52.821999999999996 53.632000000000005 53.644 52.80600000000001 54.418 51.93700000000001 C 55.619 50.58300000000001 55.717999999999996 48.57500000000001 54.655 47.110000000000014 C 54.009 46.20300000000002 53.224000000000004 45.110000000000014 52.607 44.259000000000015 C 52.235 43.74800000000001 52.187 43.070000000000014 52.482 42.512000000000015 C 53.06 41.40000000000001 53.543 40.241000000000014 53.926 39.048000000000016 C 54.114000000000004 38.445000000000014 54.629000000000005 38.00200000000002 55.253 37.90700000000002 C 56.286 37.73000000000002 57.605 37.51700000000002 58.698 37.34000000000002 C 60.498 37.05500000000002 61.856 35.554000000000016 61.96 33.73500000000002 C 62.02 32.573 62.016 31.408 61.948 30.246 z M 59.739 33.612 C 59.690999999999995 34.39 59.108999999999995 35.03 58.339 35.15 C 57.239 35.326 55.912 35.541 54.882999999999996 35.717 C 53.434999999999995 35.946999999999996 52.242 36.978 51.80499999999999 38.378 C 51.46099999999999 39.449 51.02599999999999 40.489 50.504999999999995 41.486 C 49.818 42.788999999999994 49.931 44.37 50.797 45.562 C 51.412 46.412 52.196999999999996 47.498 52.839999999999996 48.406 C 53.296 49.03 53.257 49.887 52.745999999999995 50.466 C 52.029999999999994 51.269 51.270999999999994 52.032000000000004 50.471999999999994 52.753 C 49.888999999999996 53.268 49.025999999999996 53.31 48.395999999999994 52.853 C 47.495999999999995 52.201 46.40299999999999 51.414 45.550999999999995 50.812000000000005 C 44.364999999999995 49.94800000000001 42.791 49.83200000000001 41.49099999999999 50.51200000000001 C 40.49099999999999 51.02600000000001 39.44899999999999 51.455000000000005 38.376999999999995 51.79200000000001 C 36.97 52.22800000000001 35.931999999999995 53.42600000000001 35.702 54.88100000000001 L 35.664 55.11500000000001 C 35.503 56.11000000000001 35.307 57.31500000000001 35.135 58.33600000000001 C 35.016 59.09900000000001 34.382 59.677000000000014 33.611 59.72600000000001 C 32.537 59.78700000000001 31.459999999999997 59.79000000000001 30.384999999999998 59.735000000000014 C 29.607 59.68700000000001 28.967999999999996 59.10500000000001 28.848 58.335000000000015 C 28.671 57.235000000000014 28.456 55.90900000000001 28.279999999999998 54.88000000000002 C 28.051 53.43100000000002 27.019 52.238000000000014 25.618999999999996 51.801000000000016 C 24.547999999999995 51.457000000000015 23.507999999999996 51.02200000000001 22.510999999999996 50.50100000000002 C 21.207999999999995 49.81400000000002 19.626999999999995 49.92800000000002 18.434999999999995 50.79300000000002 C 17.584999999999994 51.40700000000002 16.499999999999996 52.19300000000002 15.590999999999996 52.83600000000002 C 14.966999999999995 53.29200000000002 14.110999999999995 53.25300000000002 13.530999999999995 52.74200000000002 C 12.727999999999994 52.02500000000002 11.964999999999995 51.26600000000002 11.243999999999996 50.46700000000002 C 10.727999999999996 49.88400000000002 10.686999999999996 49.02200000000002 11.143999999999997 48.39200000000002 C 11.795999999999996 47.49200000000002 12.582999999999997 46.399000000000015 13.184999999999997 45.54600000000002 C 14.049999999999997 44.36100000000002 14.165999999999997 42.78700000000002 13.484999999999998 41.48700000000002 C 12.970999999999998 40.48700000000002 12.542999999999997 39.44500000000002 12.204999999999998 38.373000000000026 C 11.768999999999998 36.965000000000025 10.570999999999998 35.928000000000026 9.115999999999998 35.697000000000024 L 8.881999999999998 35.65900000000003 C 7.881999999999998 35.498000000000026 6.681999999999998 35.303000000000026 5.660999999999998 35.130000000000024 C 4.897999999999998 35.011000000000024 4.319999999999998 34.377000000000024 4.270999999999998 33.60600000000002 C 4.209999999999998 32.532000000000025 4.206999999999998 31.455000000000023 4.261999999999998 30.38100000000002 C 4.309999999999998 29.603000000000023 4.891999999999998 28.96400000000002 5.661999999999997 28.84300000000002 C 6.761999999999997 28.66600000000002 8.087999999999997 28.45200000000002 9.116999999999997 28.27500000000002 C 10.564999999999998 28.04900000000002 11.759999999999998 27.02100000000002 12.199999999999998 25.62300000000002 C 12.543999999999997 24.552000000000017 12.978999999999997 23.51300000000002 13.499999999999998 22.51600000000002 C 14.186999999999998 21.21200000000002 14.072999999999999 19.63100000000002 13.206999999999999 18.43900000000002 C 12.592999999999998 17.59000000000002 11.806999999999999 16.504000000000023 11.163999999999998 15.595000000000022 C 10.709999999999997 14.970000000000022 10.750999999999998 14.113000000000023 11.263999999999998 13.535000000000021 C 11.979999999999997 12.73200000000002 12.738999999999997 11.96900000000002 13.537999999999997 11.249000000000022 C 14.119999999999997 10.732000000000022 14.983999999999996 10.691000000000022 15.612999999999996 11.149000000000022 C 16.512999999999995 11.801000000000021 17.605999999999995 12.588000000000022 18.458999999999996 13.190000000000023 C 19.643999999999995 14.055000000000023 21.217999999999996 14.172000000000022 22.517999999999997 13.490000000000023 C 23.517999999999997 12.976000000000024 24.559999999999995 12.548000000000023 25.632999999999996 12.211000000000023 C 27.037999999999997 11.771000000000024 28.071999999999996 10.572000000000024 28.299999999999997 9.118000000000023 L 28.337999999999997 8.883000000000024 C 28.499 7.889000000000024 28.694 6.683000000000024 28.866999999999997 5.663000000000023 C 28.985999999999997 4.9000000000000234 29.619999999999997 4.322000000000023 30.391 4.273000000000024 C 31.465 4.212000000000024 32.542 4.209000000000024 33.616 4.264000000000023 C 34.394 4.312000000000023 35.034 4.894000000000023 35.153999999999996 5.664000000000023 C 35.330999999999996 6.764000000000022 35.544999999999995 8.091000000000022 35.721999999999994 9.120000000000022 C 35.949999999999996 10.569000000000022 36.98 11.763000000000023 38.379999999999995 12.200000000000022 C 39.45099999999999 12.544000000000022 40.489999999999995 12.979000000000022 41.486999999999995 13.500000000000023 C 42.791 14.186000000000023 44.370999999999995 14.073000000000023 45.56399999999999 13.208000000000023 C 46.413999999999994 12.593000000000023 47.498999999999995 11.808000000000023 48.407999999999994 11.165000000000024 C 49.032 10.709000000000024 49.88799999999999 10.748000000000024 50.467999999999996 11.259000000000023 C 51.269999999999996 11.976000000000024 52.032999999999994 12.735000000000024 52.754 13.533000000000023 C 53.271 14.116000000000023 53.312 14.979000000000022 52.854 15.609000000000023 C 52.202 16.50900000000002 51.415 17.60200000000002 50.813 18.454000000000022 C 49.949000000000005 19.640000000000022 49.832 21.21400000000002 50.513000000000005 22.51400000000002 C 51.03000000000001 23.51100000000002 51.46000000000001 24.550000000000022 51.800000000000004 25.62000000000002 C 52.23500000000001 27.02800000000002 53.43000000000001 28.06600000000002 54.885000000000005 28.30000000000002 L 55.120000000000005 28.337000000000018 C 56.114000000000004 28.49800000000002 57.32000000000001 28.694000000000017 58.34100000000001 28.866000000000017 C 59.104000000000006 28.98600000000002 59.68100000000001 29.619000000000018 59.73100000000001 30.39000000000002 C 59.792 31.463 59.794 32.539 59.739 33.612 z M 24.85 24.767 L 18.639000000000003 30.534 C 18.232 30.912 18 31.446 18 32 C 18 32.554 18.232 33.088 18.639 33.466 L 24.85 39.233000000000004 L 26.211000000000002 37.767 L 20 32 L 26.211 26.233 L 24.85 24.767 z M 39.15 24.767 L 37.789 26.233 L 44 32 L 37.789 37.767 L 39.15 39.233000000000004 L 45.361 33.466 C 45.768 33.088 46 32.554 46 32 C 46 31.445999999999998 45.768 30.912 45.361 30.534 L 39.15 24.767 z M 27.559 42.164 L 29.442 42.837 L 36.942 21.837000000000003 L 35.059 21.164 L 27.559 42.164 z" stroke-linecap="round" />
</g>
</g>
</g>
</svg>
