<svg id='Product_Management_24' width='24' height='24' viewBox='0 0 24 24' xmlns='http://www.w3.org/2000/svg' xmlns:xlink='http://www.w3.org/1999/xlink'><rect width='24' height='24' stroke='none' fill='#000000' opacity='0'/>


<g transform="matrix(0.31 0 0 0.31 12 12)" >
<g style="" >
<g transform="matrix(1 0 0 1 15 11)" id="Layer_2" >
<linearGradient id="SVGID_SVGID_1__1" gradientUnits="userSpaceOnUse" gradientTransform="matrix(1 0 0 1 -47 -43)" x1="47" y1="39.5" x2="47" y2="46.375">
<stop offset="0%" style="stop-color:rgb(109,199,255);stop-opacity: 1"/>
<stop offset="100%" style="stop-color:rgb(230,171,255);stop-opacity: 1"/>
</linearGradient>
<circle style="stroke: none; stroke-width: 1; stroke-dasharray: none; stroke-linecap: butt; stroke-dashoffset: 0; stroke-linejoin: miter; stroke-miterlimit: 4; fill: url(#SVGID_SVGID_1__1); fill-rule: nonzero; opacity: 1;" cx="0" cy="0" r="3" />
</g>
<g transform="matrix(1 0 0 1 -15 13)" id="Layer_2" >
<linearGradient id="SVGID_SVGID_2__2" gradientUnits="userSpaceOnUse" gradientTransform="matrix(1 0 0 1 -17 -45)" x1="17" y1="9.383" x2="17" y2="51.707">
<stop offset="0%" style="stop-color:rgb(26,109,255);stop-opacity: 1"/>
<stop offset="100%" style="stop-color:rgb(200,34,255);stop-opacity: 1"/>
</linearGradient>
<rect style="stroke: none; stroke-width: 1; stroke-dasharray: none; stroke-linecap: butt; stroke-dashoffset: 0; stroke-linejoin: miter; stroke-miterlimit: 4; fill: url(#SVGID_SVGID_2__2); fill-rule: nonzero; opacity: 1;" x="-7" y="-1" rx="0" ry="0" width="14" height="2" />
</g>
<g transform="matrix(1 0 0 1 -17 9)" id="Layer_2" >
<linearGradient id="SVGID_SVGID_3__3" gradientUnits="userSpaceOnUse" gradientTransform="matrix(1 0 0 1 -15 -41)" x1="15" y1="9.383" x2="15" y2="51.707">
<stop offset="0%" style="stop-color:rgb(26,109,255);stop-opacity: 1"/>
<stop offset="100%" style="stop-color:rgb(200,34,255);stop-opacity: 1"/>
</linearGradient>
<rect style="stroke: none; stroke-width: 1; stroke-dasharray: none; stroke-linecap: butt; stroke-dashoffset: 0; stroke-linejoin: miter; stroke-miterlimit: 4; fill: url(#SVGID_SVGID_3__3); fill-rule: nonzero; opacity: 1;" x="-5" y="-1" rx="0" ry="0" width="10" height="2" />
</g>
<g transform="matrix(1 0 0 1 0 0)" id="Layer_2" >
<linearGradient id="SVGID_SVGID_4__4" gradientUnits="userSpaceOnUse" gradientTransform="matrix(1 0 0 1 0 0)" x1="32" y1="9.383" x2="32" y2="51.707">
<stop offset="0%" style="stop-color:rgb(26,109,255);stop-opacity: 1"/>
<stop offset="100%" style="stop-color:rgb(200,34,255);stop-opacity: 1"/>
</linearGradient>
<path style="stroke: none; stroke-width: 1; stroke-dasharray: none; stroke-linecap: butt; stroke-dashoffset: 0; stroke-linejoin: miter; stroke-miterlimit: 4; fill: url(#SVGID_SVGID_4__4); fill-rule: nonzero; opacity: 1;" transform=" translate(-32, -32)" d="M 56 40 L 55.5 40 C 55.4 40 55.3 39.4 55.1 39.1 L 55.4 38.800000000000004 C 56.199999999999996 38.00000000000001 56.199999999999996 36.800000000000004 55.4 36.00000000000001 L 54 34.60000000000001 C 53.6 34.20000000000001 53.1 34.00000000000001 52.6 34.00000000000001 L 52.6 34.00000000000001 C 52.1 34.00000000000001 51.6 34.20000000000001 51.2 34.60000000000001 L 50.800000000000004 34.900000000000006 C 50.50000000000001 34.800000000000004 49.900000000000006 34.60000000000001 49.900000000000006 34.50000000000001 L 49.900000000000006 34 C 49.900000000000006 32.9 49.00000000000001 32 47.900000000000006 32 L 47.900000000000006 17.3 C 47.900000000000006 17 47.900000000000006 16.7 47.7 16.3 L 46.4 12 C 46 10.8 44.8 10 43.6 10 L 10.4 10 C 9.1 10 8 10.8 7.6000000000000005 12 L 6.200000000000001 16.3 C 6.1 16.7 6 17 6 17.3 L 6 45 C 6 47.8 8.2 50 11 50 L 38.5 50 C 38.5 50 38.5 50 38.5 50.1 L 39.9 51.5 C 40.3 51.9 40.8 52.1 41.3 52.1 L 41.3 52.1 C 41.8 52.1 42.3 51.9 42.699999999999996 51.5 L 43.099999999999994 51.2 C 43.39999999999999 51.300000000000004 43.99999999999999 51.5 43.99999999999999 51.6 L 43.99999999999999 52 C 43.99999999999999 53.1 44.89999999999999 54 45.99999999999999 54 L 47.99999999999999 54 C 49.099999999999994 54 49.99999999999999 53.1 49.99999999999999 52 L 49.99999999999999 51.5 C 49.99999999999999 51.4 50.599999999999994 51.3 50.89999999999999 51.1 L 51.29999999999999 51.5 C 51.69999999999999 51.9 52.19999999999999 52.1 52.69999999999999 52.1 L 52.69999999999999 52.1 C 53.19999999999999 52.1 53.69999999999999 51.9 54.09999999999999 51.5 L 55.499999999999986 50.1 C 56.29999999999998 49.300000000000004 56.29999999999998 48.1 55.499999999999986 47.300000000000004 L 55.19999999999999 47.00000000000001 C 55.29999999999999 46.70000000000001 55.499999999999986 46.10000000000001 55.59999999999999 46.10000000000001 L 56 46.10000000000001 C 57.1 46.10000000000001 58 45.20000000000001 58 44.10000000000001 L 58 42.10000000000001 C 58 40.9 57.1 40 56 40 z M 34 12 L 43.6 12 C 44 12 44.4 12.3 44.5 12.7 L 45.6 16 L 34 16 L 34 12 z M 22 12 L 26 12 L 26 18 L 28 18 L 28 12 L 32 12 L 32 19 C 32 19.5 31.6 20 31 20 L 23 20 C 22.5 20 22 19.6 22 19 L 22 12 z M 9.5 12.7 C 9.6 12.3 10 12 10.4 12 L 20 12 L 20 16 L 8.4 16 L 9.5 12.7 z M 38.5 47.2 C 38.3 47.400000000000006 38.1 47.7 38 48 L 11 48 C 9.3 48 8 46.7 8 45 L 8 18 L 20 18 L 20 19 C 20 20.6 21.3 22 23 22 L 31 22 C 32.6 22 34 20.7 34 19 L 34 18 L 46 18 L 46 32 C 44.9 32 44 32.9 44 34 L 44 34.5 C 44 34.6 43.4 34.7 43.1 34.9 L 42.7 34.5 C 42.300000000000004 34.1 41.800000000000004 33.9 41.300000000000004 33.9 L 41.300000000000004 33.9 C 40.800000000000004 33.9 40.300000000000004 34.1 39.900000000000006 34.5 L 38.50000000000001 35.9 C 37.70000000000001 36.699999999999996 37.70000000000001 37.9 38.50000000000001 38.699999999999996 L 38.800000000000004 38.99999999999999 C 38.7 39.29999999999999 38.50000000000001 39.89999999999999 38.400000000000006 39.89999999999999 L 38 39.89999999999999 C 36.9 39.89999999999999 36 40.79999999999999 36 41.89999999999999 L 36 43.89999999999999 C 36 44.99999999999999 36.9 45.89999999999999 38 45.89999999999999 L 38.5 45.89999999999999 C 38.6 45.89999999999999 38.7 46.49999999999999 38.9 46.79999999999999 L 38.5 47.2 z M 56 44 L 53.9 44 L 53.699999999999996 44.8 C 53.599999999999994 45.5 53.4 45.9 53.099999999999994 46.4 L 52.599999999999994 47.199999999999996 L 53.99999999999999 48.599999999999994 L 52.599999999999994 49.99999999999999 L 51.199999999999996 48.599999999999994 L 50.5 49 C 49.9 49.3 49.3 49.6 48.7 49.7 L 48 50 L 48 52 L 46 52 L 46 50 L 45.2 49.8 C 44.6 49.599999999999994 44 49.4 43.400000000000006 49.099999999999994 L 42.7 48.699999999999996 L 41.300000000000004 50.099999999999994 L 39.900000000000006 48.699999999999996 L 41.300000000000004 47.3 L 40.800000000000004 46.5 C 40.50000000000001 46 40.300000000000004 45.7 40.2 44.9 L 40.1 44 L 38 44 L 38 42 L 40.1 42 L 40.300000000000004 41.2 C 40.400000000000006 40.5 40.6 40.1 40.900000000000006 39.6 L 41.400000000000006 38.800000000000004 L 40.00000000000001 37.400000000000006 L 41.400000000000006 36.00000000000001 L 42.800000000000004 37.400000000000006 L 43.50000000000001 37.00000000000001 C 44.10000000000001 36.70000000000001 44.70000000000001 36.400000000000006 45.300000000000004 36.300000000000004 L 46 36 L 46 34 L 48 34 L 48 36 L 48.8 36.2 C 49.4 36.400000000000006 50 36.6 50.599999999999994 36.900000000000006 L 51.3 37.300000000000004 L 52.699999999999996 35.900000000000006 L 54.099999999999994 37.300000000000004 L 52.699999999999996 38.7 L 53.199999999999996 39.5 C 53.49999999999999 40 53.699999999999996 40.3 53.8 41.1 L 54 41.9 L 56 41.9 L 56 44 z" stroke-linecap="round" />
</g>
<g transform="matrix(1 0 0 1 15 11)" id="Layer_2" >
<linearGradient id="SVGID_SVGID_5__5" gradientUnits="userSpaceOnUse" gradientTransform="matrix(1 0 0 1 0 0)" x1="47" y1="9.383" x2="47" y2="51.707">
<stop offset="0%" style="stop-color:rgb(26,109,255);stop-opacity: 1"/>
<stop offset="100%" style="stop-color:rgb(200,34,255);stop-opacity: 1"/>
</linearGradient>
<path style="stroke: none; stroke-width: 1; stroke-dasharray: none; stroke-linecap: butt; stroke-dashoffset: 0; stroke-linejoin: miter; stroke-miterlimit: 4; fill: url(#SVGID_SVGID_5__5); fill-rule: nonzero; opacity: 1;" transform=" translate(-47, -43)" d="M 47 39 C 44.8 39 43 40.8 43 43 C 43 45.2 44.8 47 47 47 C 49.2 47 51 45.2 51 43 C 51 40.8 49.2 39 47 39 z M 47 45 C 45.9 45 45 44.1 45 43 C 45 41.9 45.9 41 47 41 C 48.1 41 49 41.9 49 43 C 49 44.1 48.1 45 47 45 z" stroke-linecap="round" />
</g>
</g>
</g>
</svg>
