<svg id='Project_Management_24' width='24' height='24' viewBox='0 0 24 24' xmlns='http://www.w3.org/2000/svg' xmlns:xlink='http://www.w3.org/1999/xlink'><rect width='24' height='24' stroke='none' fill='#000000' opacity='0'/>


<g transform="matrix(0.31 0 0 0.31 12 12)" >
<g style="" >
<g transform="matrix(1 0 0 1 0 -7)" id="Layer_1" >
<linearGradient id="SVGID_SVGID_1__1" gradientUnits="userSpaceOnUse" gradientTransform="matrix(1 0 0 1 0 0)" x1="32" y1="20.362" x2="32" y2="29.833">
<stop offset="0%" style="stop-color:rgb(140,197,252);stop-opacity: 1"/>
<stop offset="100%" style="stop-color:rgb(213,168,251);stop-opacity: 1"/>
</linearGradient>
<path style="stroke: none; stroke-width: 1; stroke-dasharray: none; stroke-linecap: butt; stroke-dashoffset: 0; stroke-linejoin: miter; stroke-miterlimit: 4; fill: url(#SVGID_SVGID_1__1); fill-rule: nonzero; opacity: 1;" transform=" translate(-32, -25)" d="M 32 29 C 29.8 29 28 27.2 28 25 C 28 22.8 29.8 21 32 21 C 34.2 21 36 22.8 36 25 C 36 27.2 34.2 29 32 29 z" stroke-linecap="round" />
</g>
<g transform="matrix(1 0 0 1 0 0)" id="Layer_1" >
<linearGradient id="SVGID_SVGID_2__2" gradientUnits="userSpaceOnUse" gradientTransform="matrix(1 0 0 1 0 0)" x1="32" y1="3.596" x2="32" y2="55.816">
<stop offset="0%" style="stop-color:rgb(26,109,255);stop-opacity: 1"/>
<stop offset="100%" style="stop-color:rgb(200,34,255);stop-opacity: 1"/>
</linearGradient>
<path style="stroke: none; stroke-width: 1; stroke-dasharray: none; stroke-linecap: butt; stroke-dashoffset: 0; stroke-linejoin: miter; stroke-miterlimit: 4; fill: url(#SVGID_SVGID_2__2); fill-rule: nonzero; opacity: 1;" transform=" translate(-32, -32)" d="M 51 25 C 51 14.5 42.5 6 32 6 C 21.5 6 13 14.5 13 25 C 13 32.8 17.8 39.8 25 42.6 L 25 46 L 21 46 L 21 49.5 C 21 51.4 22.6 53 24.5 53 L 25 53 L 25 54.6 C 25 56.5 26.5 58 28.5 58 L 35.6 58 C 37.5 58 39 56.5 39 54.6 L 39 53 L 39.5 53 C 41.4 53 43 51.4 43 49.5 L 43 46 L 39 46 L 39 42.6 C 46.2 39.8 51 32.8 51 25 z M 37 54.6 C 37 55.4 36.3 56 35.5 56 L 28.4 56 C 27.599999999999998 56 26.9 55.3 26.9 54.6 L 26.9 53 L 36.9 53 L 36.9 54.6 z M 41 48 L 41 49.5 C 41 50.3 40.3 51 39.5 51 L 39 51 L 25 51 L 24.5 51 C 23.7 51 23 50.3 23 49.5 L 23 48 L 25 48 L 39 48 L 41 48 z M 37.7 41 L 37 41.2 L 37 46 L 33 46 L 33 41 L 31 41 L 31 46 L 27 46 L 27 41.2 L 26.3 41 C 19.6 38.6 15 32.2 15 25 C 15 15.6 22.6 8 32 8 C 41.4 8 49 15.6 49 25 C 49 32.2 44.4 38.6 37.7 41 z" stroke-linecap="round" />
</g>
<g transform="matrix(1 0 0 1 0 -7)" id="Layer_1" >
<linearGradient id="SVGID_SVGID_3__3" gradientUnits="userSpaceOnUse" gradientTransform="matrix(1 0 0 1 0 0)" x1="32" y1="3.596" x2="32" y2="55.816">
<stop offset="0%" style="stop-color:rgb(26,109,255);stop-opacity: 1"/>
<stop offset="100%" style="stop-color:rgb(200,34,255);stop-opacity: 1"/>
</linearGradient>
<path style="stroke: none; stroke-width: 1; stroke-dasharray: none; stroke-linecap: butt; stroke-dashoffset: 0; stroke-linejoin: miter; stroke-miterlimit: 4; fill: url(#SVGID_SVGID_3__3); fill-rule: nonzero; opacity: 1;" transform=" translate(-32, -25)" d="M 41 22 L 40.5 22 C 40.4 21.7 40.3 21.5 40.2 21.2 L 40.6 20.8 C 41.2 20.2 41.5 19.5 41.5 18.7 C 41.5 17.9 41.2 17.099999999999998 40.6 16.599999999999998 C 39.5 15.499999999999998 37.5 15.499999999999998 36.4 16.599999999999998 L 36 16.999999999999996 C 35.7 16.899999999999995 35.5 16.799999999999997 35.2 16.699999999999996 L 35.2 16 C 35.2 14.3 33.900000000000006 13 32.2 13 C 30.5 13 29.200000000000003 14.3 29.200000000000003 16 L 29.200000000000003 16.5 C 28.900000000000002 16.6 28.700000000000003 16.7 28.400000000000002 16.8 L 28.000000000000004 16.400000000000002 C 26.900000000000002 15.300000000000002 24.900000000000002 15.300000000000002 23.800000000000004 16.400000000000002 C 23.200000000000003 17.000000000000004 22.900000000000006 17.700000000000003 22.900000000000006 18.500000000000004 C 22.900000000000006 19.300000000000004 23.200000000000006 20.100000000000005 23.800000000000004 20.600000000000005 L 24.200000000000003 21.000000000000004 C 24.1 21.300000000000004 24.000000000000004 21.500000000000004 23.900000000000002 21.800000000000004 L 23 21.800000000000004 C 21.3 21.800000000000004 20 23.100000000000005 20 24.800000000000004 C 20 26.500000000000004 21.3 27.800000000000004 23 27.800000000000004 L 23.5 27.800000000000004 C 23.6 28.100000000000005 23.7 28.300000000000004 23.8 28.600000000000005 L 23.400000000000002 29.000000000000004 C 22.8 29.600000000000005 22.500000000000004 30.300000000000004 22.500000000000004 31.100000000000005 C 22.500000000000004 31.900000000000006 22.800000000000004 32.7 23.400000000000002 33.2 C 24.500000000000004 34.300000000000004 26.500000000000004 34.300000000000004 27.6 33.2 L 28 32.900000000000006 C 28.3 33.00000000000001 28.5 33.10000000000001 28.8 33.2 L 28.8 34 C 28.8 35.7 30.1 37 31.8 37 C 33.5 37 34.8 35.7 34.8 34 L 34.8 33.5 C 35.099999999999994 33.4 35.3 33.3 35.599999999999994 33.2 L 35.99999999999999 33.6 C 37.099999999999994 34.7 39.099999999999994 34.7 40.199999999999996 33.6 C 40.8 33 41.099999999999994 32.300000000000004 41.099999999999994 31.5 C 41.099999999999994 30.7 40.8 29.9 40.199999999999996 29.4 L 39.8 29 C 39.9 28.7 40 28.5 40.099999999999994 28.2 L 41 28.2 C 42.7 28.2 44 26.9 44 25.2 C 44 23.5 42.7 22 41 22 z M 41 26 L 40.5 26 C 39.6 26 38.9 26.5 38.6 27.4 C 38.5 27.599999999999998 38.4 27.799999999999997 38.300000000000004 28 C 37.900000000000006 28.8 38.1 29.7 38.7 30.3 L 39.1 30.7 C 39.300000000000004 30.9 39.4 31.099999999999998 39.4 31.4 C 39.4 31.7 39.3 31.9 39.1 32.1 C 38.7 32.5 38.1 32.5 37.7 32.1 L 37.300000000000004 31.700000000000003 C 36.7 31.1 35.800000000000004 30.900000000000002 35.00000000000001 31.300000000000004 C 34.800000000000004 31.400000000000006 34.60000000000001 31.500000000000004 34.400000000000006 31.600000000000005 C 33.60000000000001 31.900000000000006 33.00000000000001 32.60000000000001 33.00000000000001 33.50000000000001 L 33.00000000000001 34 C 33.00000000000001 34.6 32.60000000000001 35 32.00000000000001 35 C 31.400000000000006 35 31.000000000000007 34.6 31.000000000000007 34 L 31.000000000000007 33.5 C 31.000000000000007 32.6 30.500000000000007 31.9 29.60000000000001 31.6 C 29.40000000000001 31.5 29.20000000000001 31.400000000000002 29.000000000000007 31.3 C 28.700000000000006 31.2 28.400000000000006 31.1 28.10000000000001 31.1 C 27.60000000000001 31.1 27.10000000000001 31.3 26.70000000000001 31.700000000000003 L 26.30000000000001 32.1 C 25.900000000000013 32.5 25.30000000000001 32.5 24.900000000000013 32.1 C 24.700000000000014 31.900000000000002 24.600000000000012 31.700000000000003 24.600000000000012 31.400000000000002 C 24.600000000000012 31.1 24.700000000000014 30.900000000000002 24.900000000000013 30.700000000000003 L 25.30000000000001 30.300000000000004 C 25.900000000000013 29.700000000000003 26.100000000000012 28.800000000000004 25.70000000000001 28.000000000000004 C 25.60000000000001 27.800000000000004 25.50000000000001 27.600000000000005 25.40000000000001 27.400000000000002 C 25.10000000000001 26.6 24.40000000000001 26.000000000000004 23.50000000000001 26.000000000000004 L 23 26.000000000000004 C 22.4 26.000000000000004 22 25.600000000000005 22 25.000000000000004 C 22 24.400000000000002 22.4 24.000000000000004 23 24.000000000000004 L 23.5 24.000000000000004 C 24.4 24.000000000000004 25.1 23.500000000000004 25.4 22.600000000000005 C 25.5 22.400000000000006 25.599999999999998 22.200000000000006 25.7 22.000000000000004 C 26.099999999999998 21.200000000000003 25.9 20.300000000000004 25.3 19.700000000000003 L 24.900000000000002 19.300000000000004 C 24.700000000000003 19.100000000000005 24.6 18.900000000000006 24.6 18.600000000000005 C 24.6 18.300000000000004 24.700000000000003 18.100000000000005 24.900000000000002 17.900000000000006 C 25.3 17.500000000000007 25.900000000000002 17.500000000000007 26.3 17.900000000000006 L 26.7 18.300000000000004 C 27.3 18.900000000000006 28.2 19.100000000000005 29 18.700000000000003 C 29.2 18.6 29.4 18.500000000000004 29.6 18.400000000000002 C 30.400000000000002 18.1 31 17.400000000000002 31 16.500000000000004 L 31 16 C 31 15.4 31.4 15 32 15 C 32.6 15 33 15.4 33 16 L 33 16.5 C 33 17.4 33.5 18.1 34.4 18.4 C 34.6 18.5 34.8 18.599999999999998 35 18.7 C 35.8 19.099999999999998 36.7 18.9 37.3 18.3 L 37.699999999999996 17.900000000000002 C 38.099999999999994 17.500000000000004 38.699999999999996 17.500000000000004 39.099999999999994 17.900000000000002 C 39.3 18.1 39.39999999999999 18.3 39.39999999999999 18.6 C 39.39999999999999 18.900000000000002 39.29999999999999 19.1 39.099999999999994 19.3 L 38.699999999999996 19.7 C 38.099999999999994 20.3 37.9 21.2 38.3 22 C 38.4 22.2 38.5 22.4 38.599999999999994 22.6 C 38.89999999999999 23.400000000000002 39.599999999999994 24 40.49999999999999 24 L 41 24 C 41.6 24 42 24.4 42 25 C 42 25.6 41.6 26 41 26 z" stroke-linecap="round" />
</g>
</g>
</g>
</svg>
